<svg width="504" height="136" viewBox="0 0 504 136" fill="none" xmlns="http://www.w3.org/2000/svg">
<rect x="24" width="16" height="8" fill="#323130"/>
<rect x="144" width="16" height="8" fill="#C91D2E"/>
<rect x="432" width="16" height="8" fill="#3B3A39"/>
<rect x="488" width="16" height="8" fill="#1F1E20"/>
<rect x="280" width="16" height="8" fill="#1F1E20"/>
<rect x="304" width="16" height="8" fill="#323130"/>
<rect x="160" width="16" height="8" fill="#6C0109"/>
<rect x="448" width="16" height="8" fill="#C91D2E"/>
<rect x="56" width="64" height="8" fill="#1F1E20"/>
<rect x="344" width="64" height="8" fill="#1F1E20"/>
<rect x="200" width="64" height="8" fill="#323130"/>
<rect x="24" y="80" width="16" height="8" fill="#323130"/>
<rect x="144" y="80" width="16" height="8" fill="#C91D2E"/>
<rect x="432" y="80" width="16" height="8" fill="#3B3A39"/>
<rect x="488" y="80" width="16" height="8" fill="#1F1E20"/>
<rect x="280" y="80" width="16" height="8" fill="#1F1E20"/>
<rect x="304" y="80" width="16" height="8" fill="#323130"/>
<rect x="160" y="80" width="16" height="8" fill="#6C0109"/>
<rect x="448" y="80" width="16" height="8" fill="#C91D2E"/>
<rect x="56" y="80" width="64" height="8" fill="#1F1E20"/>
<rect x="344" y="80" width="64" height="8" fill="#1F1E20"/>
<rect x="200" y="80" width="64" height="8" fill="#323130"/>
<rect x="24" y="128" width="16" height="8" fill="#323130"/>
<rect x="144" y="128" width="16" height="8" fill="#C91D2E"/>
<rect x="432" y="128" width="16" height="8" fill="#3B3A39"/>
<rect x="488" y="128" width="16" height="8" fill="#1F1E20"/>
<rect x="280" y="128" width="16" height="8" fill="#1F1E20"/>
<rect x="304" y="128" width="16" height="8" fill="#323130"/>
<rect x="160" y="128" width="16" height="8" fill="#6C0109"/>
<rect x="448" y="128" width="16" height="8" fill="#C91D2E"/>
<rect x="56" y="128" width="64" height="8" fill="#1F1E20"/>
<rect x="344" y="128" width="64" height="8" fill="#1F1E20"/>
<rect x="200" y="128" width="64" height="8" fill="#323130"/>
<rect x="104" y="48" width="16" height="8" fill="#323130"/>
<rect x="224" y="48" width="16" height="8" fill="#C91D2E"/>
<rect x="432" y="48" width="16" height="8" fill="#3B3A39"/>
<rect x="160" y="48" width="16" height="8" fill="#1F1E20"/>
<rect x="360" y="48" width="16" height="8" fill="#1F1E20"/>
<rect x="384" y="48" width="16" height="8" fill="#323130"/>
<rect x="240" y="48" width="16" height="8" fill="#6C0109"/>
<rect x="24" y="48" width="16" height="8" fill="#C91D2E"/>
<rect x="136" y="48" width="64" height="8" fill="#1F1E20"/>
<rect x="424" y="48" width="64" height="8" fill="#1F1E20"/>
<rect x="280" y="48" width="64" height="8" fill="#323130"/>
<rect x="104" y="112" width="16" height="8" fill="#323130"/>
<rect x="224" y="112" width="16" height="8" fill="#C91D2E"/>
<rect x="432" y="112" width="16" height="8" fill="#3B3A39"/>
<rect x="160" y="112" width="16" height="8" fill="#1F1E20"/>
<rect x="360" y="112" width="16" height="8" fill="#1F1E20"/>
<rect x="384" y="112" width="16" height="8" fill="#323130"/>
<rect x="240" y="112" width="16" height="8" fill="#6C0109"/>
<rect x="24" y="112" width="16" height="8" fill="#C91D2E"/>
<rect x="136" y="112" width="64" height="8" fill="#1F1E20"/>
<rect x="424" y="112" width="64" height="8" fill="#1F1E20"/>
<rect x="280" y="112" width="64" height="8" fill="#323130"/>
<rect x="40" y="16" width="120" height="8" fill="#1F1E20"/>
<rect x="448" y="16" width="16" height="8" fill="#1F1E20"/>
<rect x="312" y="16" width="104" height="8" fill="#C91D2E"/>
<rect x="40" y="64" width="120" height="8" fill="#C91D2E"/>
<rect x="448" y="64" width="16" height="8" fill="#1F1E20"/>
<rect x="312" y="64" width="104" height="8" fill="#323130"/>
<rect x="160" y="32" width="208" height="8" fill="#C91D2E"/>
<rect x="392" y="32" width="16" height="8" fill="#3B3A39"/>
<rect x="448" y="32" width="16" height="8" fill="#1F1E20"/>
<rect x="120" y="32" width="16" height="8" fill="#1F1E20"/>
<rect x="104" y="32" width="16" height="8" fill="#323130"/>
<rect x="56" y="32" width="16" height="8" fill="#3B3A39"/>
<rect y="32" width="16" height="8" fill="#1F1E20"/>
<rect x="160" y="96" width="208" height="8" fill="#C91D2E"/>
<rect x="392" y="96" width="16" height="8" fill="#3B3A39"/>
<rect x="448" y="96" width="16" height="8" fill="#1F1E20"/>
<rect x="120" y="96" width="16" height="8" fill="#1F1E20"/>
<rect x="104" y="96" width="16" height="8" fill="#323130"/>
<rect x="56" y="96" width="16" height="8" fill="#3B3A39"/>
<rect y="96" width="16" height="8" fill="#1F1E20"/>
</svg>
