<?xml version="1.0" encoding="iso-8859-1"?>
<!-- Generator: Adobe Illustrator 16.0.0, SVG Export Plug-In . SVG Version: 6.00 Build 0)  -->
<!DOCTYPE svg PUBLIC "-//W3C//DTD SVG 1.1//EN" "http://www.w3.org/Graphics/SVG/1.1/DTD/svg11.dtd">
<svg version="1.1" id="Capa_1" xmlns="http://www.w3.org/2000/svg" xmlns:xlink="http://www.w3.org/1999/xlink" x="0px" y="0px"
	 width="92.936px" height="92.936px" viewBox="0 0 92.936 92.936" style="enable-background:new 0 0 92.936 92.936;"
	 xml:space="preserve">
<g>
	<g>
		<rect x="17.233" y="29.894" width="58.345" height="8.821"/>
		<path d="M92.818,46.351C92.818,20.793,72.026,0,46.468,0S0.118,20.793,0.118,46.351c0,25.149,20.137,45.664,45.132,46.315
			l0.233,0.269v-0.258V83.4V40.493H17.306v8.689h19.359v32.909C20.967,77.783,9.395,63.398,9.395,46.35
			C9.396,25.908,26.027,9.278,46.468,9.278S83.54,25.908,83.54,46.351c0,17.05-11.572,31.433-27.271,35.741V49.183h19.369v-8.689
			H47.452V83.4v9.276v0.259l0.234-0.27C72.68,92.015,92.818,71.499,92.818,46.351z"/>
	</g>
</g>
<g>
</g>
<g>
</g>
<g>
</g>
<g>
</g>
<g>
</g>
<g>
</g>
<g>
</g>
<g>
</g>
<g>
</g>
<g>
</g>
<g>
</g>
<g>
</g>
<g>
</g>
<g>
</g>
<g>
</g>
</svg>
