<?xml version="1.0" encoding="iso-8859-1"?>
<!-- Generator: Adobe Illustrator 16.0.0, SVG Export Plug-In . SVG Version: 6.00 Build 0)  -->
<!DOCTYPE svg PUBLIC "-//W3C//DTD SVG 1.1//EN" "http://www.w3.org/Graphics/SVG/1.1/DTD/svg11.dtd">
<svg version="1.1" id="Capa_1" xmlns="http://www.w3.org/2000/svg" xmlns:xlink="http://www.w3.org/1999/xlink" x="0px" y="0px"
	 width="36.021px" height="36.021px" viewBox="0 0 36.021 36.021" style="enable-background:new 0 0 36.021 36.021;"
	 xml:space="preserve">
<g>
	<g>
		<path d="M5.238,9.98c-0.394,0.207-0.611,5.349,0.021,8.509c-0.049,0.703-0.193-0.464-0.257-0.04
			c0.109,2.701,0.603,5.762,1.014,8.11c-0.217-0.296-0.32,1.705,0.704,3.388c0.151,0.146-0.14-0.756,0.008-0.637
			c0.143,0.389,0.302,0.771,0.499,1.14l0.002,0.003l0.008,0.009c0.399,0.502,0.771,1.062,1.151,1.599l0.006,0.009l0.013,0.001
			c0.031,0.002,0.013-0.021,0.015,0.012v0.007l0.004,0.006c0.164,0.208,0.349,0.399,0.532,0.592c0.006,0.006,0.011,0.014,0.017,0.02
			c0.001,0.001,0.002,0.001,0.004,0.003c0.302,0.312,0.619,0.604,0.972,0.857c0.575,0.415,1.218,0.728,1.859,1.031
			c1.299,0.581,2.685,0.969,4.099,1.191h0.062h0.003h0.003c0.634,0.051,1.271,0.074,1.909,0.094c1.579,0.109,4.34,0.139,8.294,0.139
			c0.107,0,0.243-0.035,0.351-0.07c1.215-0.068,2.264-0.522,3.135-1.395l0.035-0.035c0.941-0.941,1.428-2.09,1.428-3.417
			c0-1.356-0.485-2.472-1.428-3.448c-0.906-0.904-2.025-1.396-3.276-1.428c-0.071,0-0.136,0-0.208,0
			c-1.284-0.073-2.316-0.111-3.15-0.127c-0.129-0.006-0.258-0.013-0.387-0.02c-0.953-0.044-1.906-0.047-2.856-0.068l-0.759-0.016
			c-0.01-0.006-0.022-0.01-0.028-0.016c-0.071-0.066-0.142-0.066-0.212-0.103c-0.206-0.104-0.422-0.211-0.559-0.382
			c-0.035-0.038-0.071-0.07-0.106-0.07c-0.344-0.422-0.517-0.905-0.517-1.464l-0.074-4.243l1.652-0.002
			c0.238,0.004,0.464,0.006,0.656,0.006l2.467-0.01c0.178,0,0.338-0.002,0.489-0.003h0.08c2.052-0.008,2.294-0.066,1.705-0.132
			l0.954-0.004c-0.721,0.309-0.972,0.512-0.207,0.716c0.833-0.126,1.623-0.466,2.292-0.938c0.743-0.226,1.426-0.617,2.043-1.212
			l0.033-0.034c0.942-0.943,1.431-2.092,1.431-3.451c0-1.322-0.487-2.473-1.431-3.449c-0.978-0.941-2.127-1.432-3.445-1.432
			c-0.244,0-0.494-0.007-0.751-0.001c-0.19-0.032-0.381-0.064-0.573-0.081c-1.032-0.039-2.039-0.006-3.065-0.02L17.119,9.62
			l-0.005-4.265c0,0,0-0.524,0-0.56c-0.069-1.148-0.558-2.162-1.392-2.96c-0.724-0.75-1.603-1.176-2.58-1.324
			c-0.601-0.294-1.261-0.462-1.936-0.5c-0.835-0.053-1.726,0.094-2.512,0.456C7.116,1.189,5.897,2.7,5.682,4.495L5.68,4.512
			L5.679,4.553C5.557,9.997,5.617,15.369,5.894,20.573l0.025,0.735l-0.085-1.058C5.54,16.785,5.26,13.332,5.238,9.98z M6.576,12.287
			c0.208-0.109,0.013,4.052,0.289,3.897c0.442-2.457,0.379-8.611-0.148-10.341l0.021-0.648L6.751,4.9
			c0.005-0.075,0.01-0.07,0.018-0.107C6.783,4.729,6.792,4.64,6.796,4.547L6.792,4.605c0.191-1.341,1.23-2.541,2.46-3.02
			c0.016-0.006,0.032-0.01,0.049-0.016C9.222,1.637,9.136,1.689,9.06,1.762c-0.027,0.034-0.065,0.034-0.105,0.07
			C8.189,2.601,7.738,3.504,7.633,4.549c0,0.141-0.035,0.208-0.035,0.348v21.154c0.035,1.565,0.312,2.965,0.906,4.076
			c0.034,0.107,0.104,0.211,0.178,0.315c0.102,0.104,0.45,0.626,1.113,1.604c0.036,0,0.036,0,0.036,0.033
			c0.556,0.733,1.215,1.359,2.02,1.851c0,0,0,0,0.034,0c0.784,0.467,1.61,0.85,2.472,1.159c-0.818-0.215-1.619-0.484-2.388-0.832
			c-0.629-0.301-1.244-0.604-1.791-1.002c-0.54-0.393-1.022-0.87-1.437-1.401c-0.021-0.031-0.037-0.069-0.061-0.088
			c-0.01-0.005-0.012-0.005-0.021-0.011c-0.353-0.503-0.652-0.967-1.077-1.51c-1.388-2.564-1.062-5.621-1.144-8.544
			C6.476,18.671,6.146,14.359,6.576,12.287z"/>
		<polygon points="15.909,35.788 15.906,35.788 15.899,35.788 		"/>
	</g>
</g>
<g>
</g>
<g>
</g>
<g>
</g>
<g>
</g>
<g>
</g>
<g>
</g>
<g>
</g>
<g>
</g>
<g>
</g>
<g>
</g>
<g>
</g>
<g>
</g>
<g>
</g>
<g>
</g>
<g>
</g>
</svg>
