<svg id="Capa_1" enable-background="new 0 0 512 512" height="512" viewBox="0 0 512 512" width="512" xmlns="http://www.w3.org/2000/svg"><g><path d="m497 151h-136v-136c0-8.291-6.709-15-15-15h-180c-8.291 0-15 6.709-15 15v136h-136c-8.291 0-15 6.709-15 15v180c0 8.291 6.709 15 15 15h136v136c0 8.291 6.709 15 15 15h180c8.291 0 15-6.709 15-15v-136h136c8.291 0 15-6.709 15-15v-180c0-8.291-6.709-15-15-15zm-241 0c8.284 0 15 6.714 15 15 0 8.284-6.716 15-15 15s-15-6.716-15-15c0-8.286 6.716-15 15-15zm-60 30c8.284 0 15 6.714 15 15 0 8.284-6.716 15-15 15s-15-6.716-15-15c0-8.286 6.716-15 15-15zm90 150c-11.514 0-22.031-4.351-30-11.484-7.969 7.133-18.486 11.484-30 11.484-24.814 0-45-20.186-45-45 0-20.273 13.477-37.456 31.934-43.066 5.61-18.457 22.793-31.934 43.066-31.934s37.456 13.477 43.066 31.934c18.457 5.61 31.934 22.793 31.934 43.066 0 24.814-20.186 45-45 45zm30-120c-8.284 0-15-6.716-15-15 0-8.286 6.716-15 15-15s15 6.714 15 15c0 8.284-6.716 15-15 15z"/><path d="m286 271c-8.291 0-15-6.709-15-15 0-8.276-6.724-15-15-15s-15 6.724-15 15c0 8.291-6.709 15-15 15-8.276 0-15 6.724-15 15s6.724 15 15 15 15-6.724 15-15c0-8.291 6.709-15 15-15s15 6.709 15 15c0 8.276 6.724 15 15 15s15-6.724 15-15-6.724-15-15-15z"/></g></svg>